<svg width="314" height="303" viewBox="0 0 314 303" fill="none" xmlns="http://www.w3.org/2000/svg">
    <path fill-rule="evenodd" clip-rule="evenodd"
          d="M164.319 121.032C161.137 118.951 157.031 118.926 153.823 120.967C147.868 124.757 147.84 133.44 153.769 137.268L185.575 157.804C190.246 160.82 193.067 166 193.067 171.559V187.086C193.067 192.757 190.133 198.023 185.312 201.008L167.562 211.996C162.146 215.348 155.278 215.256 149.954 211.759L82.5621 167.492C77.9534 164.465 75.1779 159.321 75.1779 153.807V80.2291C75.1779 67.3259 60.9476 59.4929 50.0457 66.3953L13.6148 89.461C8.87365 92.4628 6 97.6834 6 103.295V193.781C6 199.372 8.85291 204.577 13.5662 207.584L149.906 294.579C155.262 297.996 162.11 298.007 167.477 294.607L204.696 271.026C209.434 268.023 212.306 262.804 212.306 257.194V161.265C212.306 155.739 209.518 150.585 204.893 147.561L164.319 121.032ZM104.679 242.948C95.0706 236.772 95.0457 222.735 104.632 216.524C109.867 213.133 116.611 213.156 121.822 216.583L149.706 234.921C155.156 238.505 162.214 238.513 167.672 234.939L168.384 234.473C178.99 227.528 193.067 235.137 193.067 247.815C193.067 253.387 190.159 258.555 185.396 261.446L167.428 272.355C162.077 275.604 155.342 275.518 150.077 272.133L104.679 242.948ZM25.2388 113.489C25.2388 108.163 27.9863 103.212 32.5068 100.394C42.7853 93.9869 56.1011 101.377 56.1011 113.489V165.623C56.1011 171.167 58.9063 176.334 63.5553 179.354L76.9977 188.086C86.6423 194.351 86.5185 208.512 76.7659 214.607C71.5571 217.862 64.9297 217.787 59.7965 214.414L32.6204 196.555C28.0132 193.528 25.2388 188.385 25.2388 182.872V113.489Z"
          fill="#5E5E5E" stroke="#5E5E5E" stroke-width="10.6428"/>
    <path fill-rule="evenodd" clip-rule="evenodd"
          d="M300.848 214.941C305.61 211.943 308.5 206.71 308.5 201.083V112.148C308.5 106.62 305.71 101.465 301.082 98.4411L163.852 8.78408C158.463 5.26328 151.511 5.2268 146.085 8.69086L109.347 32.1467C104.636 35.1545 101.785 40.3578 101.785 45.9472V142.511C101.785 147.934 104.469 153.005 108.954 156.053L148.911 183.211C152.114 185.389 156.3 185.473 159.589 183.427C165.66 179.649 165.766 170.848 159.787 166.925L128.825 146.615C124.212 143.588 121.433 138.442 121.433 132.924V116.553C121.433 110.855 124.395 105.566 129.254 102.59L145.42 92.689C150.776 89.4081 157.538 89.4809 162.822 92.8764L231.39 136.932C236.078 139.944 238.913 145.134 238.913 150.707V224.271C238.913 237.155 253.104 244.991 264.008 238.128L300.848 214.941ZM289.261 190.735C289.261 196.175 286.455 201.231 281.838 204.109C271.341 210.653 257.742 203.105 257.742 190.735V139.322C257.742 133.708 254.865 128.485 250.12 125.484L162.57 70.1161C157.433 66.8676 150.897 66.8207 145.714 69.9952C135.086 76.5049 121.433 68.7242 121.433 56.261C121.433 50.6648 124.348 45.4308 129.126 42.5174L146.284 32.0554C151.618 28.803 158.338 28.8693 163.607 32.2266L281.686 107.466C286.404 110.473 289.261 115.68 289.261 121.275V190.735Z"
          fill="white" stroke="white" stroke-width="10.6428"/>
</svg>
