<?xml version="1.0" encoding="iso-8859-1"?>
<!-- Uploaded to: SVG Repo, www.svgrepo.com, Generator: SVG Repo Mixer Tools -->
<svg version="1.1" id="Layer_1" xmlns="http://www.w3.org/2000/svg" xmlns:xlink="http://www.w3.org/1999/xlink" 
	 viewBox="0 0 512 512" xml:space="preserve">
<path style="fill:#D6E5F6;" d="M488.727,31.03H23.273C10.42,31.03,0,41.45,0,54.303v403.394c0,12.854,10.42,23.273,23.273,23.273
	h465.455c12.853,0,23.273-10.418,23.273-23.273V54.303C512,41.45,501.58,31.03,488.727,31.03z"/>
<path style="fill:#A4C6EC;" d="M488.727,31.03H256V480.97h232.727c12.853,0,23.273-10.418,23.273-23.273V54.303
	C512,41.45,501.58,31.03,488.727,31.03z"/>
<path style="fill:#385C8E;" d="M488.727,31.03H23.273C10.42,31.03,0,41.45,0,54.303v93.091c0,12.854,10.42,23.273,23.273,23.273
	h465.455c12.853,0,23.273-10.418,23.273-23.273V54.303C512,41.45,501.58,31.03,488.727,31.03z"/>
<path style="fill:#1D3366;" d="M488.727,31.03H256v139.636h232.727c12.853,0,23.273-10.418,23.273-23.273V54.303
	C512,41.45,501.58,31.03,488.727,31.03z"/>
<rect x="395.636" y="54.303" style="fill:#FFFFFF;" width="93.091" height="93.122"/>
<path style="fill:#1D3366;" d="M488.727,170.695h-93.091c-12.853,0-23.273-10.42-23.273-23.273V54.303
	c0-12.851,10.42-23.273,23.273-23.273h93.091C501.58,31.03,512,41.452,512,54.303v93.119
	C512,160.275,501.58,170.695,488.727,170.695z M418.909,124.149h46.545V77.576h-46.545V124.149z"/>
</svg>